<svg xmlns="http://www.w3.org/2000/svg" width="592" height="227" viewBox="0 0 592 227"><path d="M 392.00 178.25 L 391.50 178.50 L 391.50 179.00 L 391.25 179.25 L 391.25 179.75 L 391.50 208.25 L 391.25 210.00 L 391.00 210.50 L 390.75 211.00 L 390.00 211.75 L 389.50 211.75 L 389.00 212.25 L 388.75 212.75 L 389.00 214.00 L 389.75 214.25 L 390.75 214.25 L 397.00 214.25 L 398.00 214.25 L 399.00 213.75 L 399.00 212.50 L 398.25 211.75 L 397.50 211.75 L 396.75 211.50 L 396.25 211.00 L 396.00 210.00 L 395.75 201.75 L 396.00 193.50 L 395.75 190.50 L 396.00 189.00 L 396.75 189.75 L 397.50 191.00 L 401.00 194.25 L 401.50 195.00 L 408.00 201.25 L 408.50 201.75 L 410.50 204.25 L 411.50 205.00 L 413.75 207.75 L 418.75 212.50 L 419.50 213.25 L 419.50 213.50 L 420.25 214.25 L 422.00 214.00 L 422.25 213.50 L 422.25 182.75 L 422.50 181.75 L 423.25 181.00 L 423.25 180.75 L 423.75 180.25 L 424.25 180.25 L 424.75 180.00 L 424.75 178.50 L 424.25 178.25 L 423.50 178.25 L 417.25 178.25 L 415.75 178.25 L 415.25 178.75 L 415.25 180.00 L 415.75 180.50 L 416.25 180.75 L 417.00 180.75 L 417.75 181.50 L 418.00 182.00 L 417.75 197.75 L 417.75 200.75 L 418.25 202.00 L 417.25 202.00 L 416.25 200.50 L 414.00 198.50 L 413.25 197.50 L 407.25 191.50 L 406.75 191.25 L 406.50 191.00 L 405.25 189.25 L 401.25 185.50 L 400.25 184.50 L 400.25 184.25 L 399.00 183.00 L 398.00 181.50 L 396.25 179.75 L 396.25 179.50 L 395.25 178.50 L 394.75 178.25 Z M 360.00 178.25 L 359.50 178.50 L 359.50 179.75 L 359.50 180.00 L 359.75 180.25 L 361.00 181.00 L 361.25 181.25 L 361.50 181.75 L 361.50 207.25 L 361.25 209.75 L 360.75 210.75 L 360.50 211.25 L 359.75 211.50 L 359.25 211.75 L 358.75 212.25 L 359.00 214.00 L 359.50 214.25 L 360.75 214.25 L 369.00 214.25 L 370.00 214.00 L 370.25 213.50 L 370.25 212.25 L 369.75 211.75 L 369.00 211.50 L 368.25 210.75 L 368.00 185.75 L 368.25 183.00 L 368.00 181.75 L 368.25 181.25 L 369.00 180.50 L 369.75 180.25 L 370.00 180.00 L 370.00 179.75 L 370.25 179.25 L 370.00 178.75 L 369.50 178.25 L 367.25 178.50 L 366.75 178.50 Z M 275.00 178.25 L 274.50 178.50 L 274.50 180.25 L 275.00 180.25 L 275.75 181.00 L 276.00 181.00 L 276.50 181.50 L 276.25 191.25 L 276.25 195.50 L 276.50 201.75 L 276.25 210.50 L 276.00 211.00 L 275.50 211.50 L 275.00 211.75 L 274.00 212.00 L 273.75 212.50 L 273.75 213.50 L 274.25 214.00 L 274.75 214.25 L 297.00 214.25 L 297.50 214.00 L 298.00 213.50 L 298.25 212.75 L 298.25 211.25 L 299.00 210.00 L 299.25 209.00 L 299.50 207.25 L 299.50 206.75 L 299.25 206.25 L 298.75 206.00 L 298.25 206.00 L 297.75 206.25 L 297.50 206.75 L 297.50 207.25 L 296.50 208.50 L 295.50 209.50 L 295.00 209.75 L 294.00 210.00 L 293.00 210.25 L 287.00 210.50 L 283.50 210.50 L 283.00 210.00 L 283.00 181.50 L 284.00 180.50 L 284.75 180.25 L 285.25 179.75 L 285.25 179.00 L 285.00 178.50 L 284.50 178.25 L 283.00 178.25 L 276.25 178.25 Z M 229.50 178.25 L 221.00 178.50 L 220.50 179.00 L 220.75 180.25 L 221.00 180.25 L 221.50 180.75 L 222.25 181.00 L 222.50 181.25 L 222.75 181.75 L 222.75 182.75 L 222.75 203.75 L 223.25 205.25 L 223.50 206.25 L 223.75 206.75 L 224.25 207.25 L 224.50 208.25 L 225.00 209.00 L 225.75 210.00 L 226.00 210.25 L 226.50 210.75 L 227.00 211.25 L 228.25 212.25 L 229.25 213.00 L 229.75 213.25 L 230.25 213.25 L 231.25 214.00 L 232.25 214.25 L 233.50 214.25 L 235.50 215.00 L 239.25 215.00 L 240.75 214.75 L 243.00 214.25 L 243.75 214.00 L 245.50 213.25 L 246.00 213.00 L 247.25 212.25 L 248.50 211.25 L 250.25 209.50 L 251.00 208.25 L 252.00 206.25 L 252.25 205.25 L 252.25 204.00 L 252.75 203.00 L 253.00 202.00 L 253.25 196.75 L 253.00 186.50 L 253.00 183.25 L 253.25 181.50 L 253.75 181.00 L 254.75 180.50 L 255.25 180.00 L 255.25 179.00 L 255.00 178.50 L 254.00 178.25 L 247.75 178.25 L 247.00 178.25 L 246.50 178.50 L 246.25 180.00 L 247.00 180.75 L 248.00 181.00 L 248.50 181.50 L 248.50 202.00 L 248.25 203.00 L 247.75 203.75 L 247.75 204.75 L 247.50 206.00 L 246.75 206.75 L 246.50 207.50 L 246.25 208.00 L 246.00 208.25 L 245.50 208.75 L 245.00 209.25 L 244.25 209.75 L 243.75 209.75 L 243.25 210.25 L 242.50 210.50 L 240.75 210.75 L 237.25 210.75 L 236.00 210.50 L 235.50 210.25 L 235.00 209.75 L 233.75 209.50 L 232.75 208.75 L 231.25 207.25 L 231.00 206.25 L 230.50 205.75 L 230.25 205.25 L 230.00 203.00 L 229.50 202.25 L 229.25 201.00 L 229.25 187.00 L 229.50 181.50 L 230.25 180.50 L 231.00 180.25 L 231.50 180.00 L 231.75 179.25 L 231.50 178.75 L 231.00 178.25 Z M 135.25 178.25 L 134.75 178.75 L 135.00 180.25 L 136.25 180.50 L 136.50 181.00 L 137.50 181.75 L 137.50 210.00 L 137.00 211.00 L 136.50 211.50 L 134.75 212.00 L 134.50 213.25 L 134.75 214.00 L 135.25 214.25 L 157.50 214.25 L 158.25 214.00 L 158.75 213.50 L 159.00 213.00 L 159.25 212.25 L 159.25 211.00 L 159.50 210.25 L 160.00 209.50 L 160.25 208.50 L 160.25 207.25 L 160.50 207.00 L 160.50 206.00 L 160.00 205.50 L 158.50 205.75 L 158.25 206.50 L 157.75 207.00 L 157.50 207.50 L 157.50 208.00 L 157.25 208.50 L 156.00 209.75 L 154.75 210.25 L 153.00 210.50 L 144.50 210.50 L 144.00 210.00 L 143.75 209.00 L 144.00 207.75 L 143.50 198.75 L 144.00 197.75 L 144.50 197.50 L 147.75 197.25 L 151.25 197.25 L 153.50 197.50 L 154.75 199.00 L 155.75 199.00 L 156.00 199.00 L 156.25 194.75 L 156.75 193.00 L 156.75 192.50 L 156.50 192.00 L 156.00 191.75 L 155.50 191.75 L 155.00 192.00 L 154.75 192.75 L 154.50 193.25 L 154.25 193.50 L 153.75 193.75 L 144.50 193.75 L 143.75 192.75 L 144.00 190.50 L 143.50 186.25 L 143.50 182.50 L 144.00 182.00 L 147.00 181.75 L 149.75 181.75 L 155.00 182.00 L 155.75 182.75 L 155.75 183.25 L 156.75 184.25 L 158.25 184.00 L 158.25 179.25 L 158.00 179.00 L 158.00 178.50 L 157.50 178.25 L 155.50 178.25 L 136.50 178.25 Z M 86.25 178.00 L 85.75 178.50 L 85.50 179.00 L 85.75 180.25 L 86.75 180.50 L 87.75 181.50 L 88.00 184.50 L 88.00 205.25 L 87.75 210.50 L 87.25 211.50 L 86.50 211.50 L 85.50 212.00 L 85.25 212.50 L 85.25 213.50 L 85.25 213.75 L 86.25 214.25 L 87.25 214.25 L 94.00 214.25 L 96.25 214.25 L 96.75 214.00 L 97.00 212.50 L 96.25 211.75 L 95.50 211.75 L 94.75 211.50 L 94.25 211.00 L 94.25 198.50 L 95.00 198.00 L 98.50 198.25 L 99.00 198.50 L 99.50 199.00 L 99.75 199.50 L 99.75 200.00 L 100.50 200.75 L 100.75 201.75 L 101.75 203.50 L 102.50 204.25 L 102.75 205.00 L 103.50 205.75 L 103.75 206.50 L 104.50 207.25 L 104.75 208.00 L 105.50 208.75 L 105.75 209.50 L 106.50 210.50 L 107.75 212.00 L 109.25 213.25 L 109.75 213.25 L 110.25 213.75 L 110.75 214.00 L 112.25 214.25 L 118.00 214.25 L 119.00 213.75 L 119.25 213.25 L 119.00 211.50 L 118.50 211.25 L 118.00 211.25 L 117.00 211.50 L 116.50 211.25 L 116.00 210.75 L 115.50 210.75 L 115.00 210.50 L 113.75 209.50 L 113.25 209.00 L 112.75 208.50 L 112.25 208.00 L 111.50 207.00 L 110.25 205.25 L 110.00 204.50 L 109.25 204.00 L 109.25 203.50 L 108.25 202.50 L 107.50 201.25 L 107.00 200.00 L 106.25 199.25 L 106.25 199.00 L 105.50 198.50 L 105.25 198.25 L 105.00 197.75 L 105.50 197.25 L 106.75 196.50 L 108.00 196.00 L 110.00 194.00 L 110.75 192.75 L 111.00 192.25 L 111.25 191.75 L 112.00 189.50 L 112.00 185.50 L 111.25 183.75 L 111.00 183.25 L 110.00 181.75 L 109.00 180.75 L 108.25 180.50 L 107.50 179.75 L 107.00 179.50 L 106.50 179.50 L 105.50 178.75 L 104.50 178.50 L 101.25 178.25 L 87.00 178.00 Z M 94.75 181.50 L 98.50 181.75 L 101.00 182.00 L 102.00 182.25 L 103.00 183.00 L 103.75 183.75 L 104.50 184.75 L 104.75 185.50 L 104.75 186.25 L 105.25 187.00 L 105.25 189.50 L 104.75 191.25 L 104.50 192.00 L 103.75 193.00 L 103.00 193.75 L 102.25 194.25 L 101.75 194.50 L 101.00 194.75 L 98.75 195.00 L 97.50 195.00 L 94.75 195.00 L 94.25 194.50 L 94.25 182.00 Z M 311.75 178.00 L 311.50 178.50 L 311.25 179.25 L 311.25 179.75 L 311.50 181.00 L 311.25 182.00 L 310.75 182.50 L 310.50 183.25 L 310.50 184.50 L 310.75 185.00 L 312.50 185.00 L 313.00 184.50 L 313.00 183.75 L 313.25 183.25 L 314.25 182.25 L 314.75 182.00 L 317.00 181.75 L 317.75 181.75 L 322.50 181.75 L 323.00 181.75 L 323.75 182.50 L 323.75 183.00 L 323.50 210.50 L 323.25 211.00 L 322.75 211.50 L 322.00 211.75 L 321.00 212.00 L 320.75 212.50 L 320.75 213.25 L 321.00 213.75 L 322.00 214.25 L 323.00 214.25 L 331.00 214.25 L 332.00 214.25 L 332.75 214.00 L 333.25 213.50 L 333.25 212.50 L 333.00 212.00 L 331.50 211.75 L 331.00 211.50 L 330.25 210.75 L 330.25 182.25 L 331.00 181.75 L 338.00 182.00 L 339.00 182.25 L 339.50 182.75 L 339.50 183.00 L 340.25 183.75 L 340.50 184.75 L 341.00 185.25 L 341.75 185.25 L 342.25 184.75 L 342.25 178.50 L 341.75 178.00 L 340.00 178.00 L 326.50 178.50 L 324.25 178.50 L 313.25 178.25 L 312.50 177.75 Z M 460.50 177.50 L 459.00 177.75 L 458.25 178.25 L 457.25 178.50 L 455.50 178.50 L 454.75 178.75 L 453.75 179.50 L 452.50 179.75 L 451.75 180.50 L 451.00 180.75 L 449.75 181.75 L 449.25 182.50 L 447.75 183.50 L 447.50 183.75 L 446.50 185.00 L 445.75 186.00 L 445.50 186.50 L 445.50 187.00 L 445.25 187.50 L 444.75 188.00 L 444.50 188.50 L 444.25 189.50 L 443.75 190.75 L 443.50 191.75 L 443.50 200.75 L 443.75 201.50 L 444.50 202.75 L 444.50 203.75 L 444.75 204.50 L 445.50 205.25 L 445.50 205.75 L 445.75 206.25 L 446.50 206.75 L 446.50 207.25 L 449.50 210.25 L 450.75 211.25 L 451.25 211.25 L 452.00 212.00 L 452.75 212.25 L 453.50 213.00 L 454.25 213.25 L 455.25 213.25 L 456.50 214.00 L 457.50 214.25 L 459.75 214.75 L 461.25 215.00 L 464.75 215.00 L 466.25 214.50 L 470.00 214.25 L 471.25 214.00 L 472.00 213.50 L 472.75 213.25 L 474.00 213.25 L 475.75 212.25 L 476.50 212.25 L 477.25 211.50 L 477.25 199.25 L 478.25 198.25 L 479.25 198.00 L 479.00 196.25 L 478.50 196.00 L 478.00 196.00 L 477.75 196.25 L 476.75 196.50 L 467.75 196.50 L 467.25 196.75 L 467.00 197.75 L 467.25 198.50 L 467.75 198.75 L 468.75 199.00 L 470.00 199.00 L 470.75 199.75 L 470.75 209.50 L 470.50 210.00 L 470.25 210.25 L 469.75 210.50 L 468.50 210.75 L 466.25 211.25 L 462.50 211.25 L 461.50 210.75 L 460.50 210.75 L 459.75 210.50 L 458.75 210.00 L 457.25 209.25 L 456.50 208.75 L 455.00 207.50 L 454.25 206.75 L 454.25 206.50 L 453.25 205.50 L 453.00 204.75 L 452.25 204.00 L 452.00 202.50 L 451.50 202.00 L 451.25 201.50 L 451.00 200.50 L 451.00 199.25 L 450.50 198.00 L 450.50 192.75 L 451.00 191.75 L 451.00 190.25 L 451.25 188.75 L 451.50 188.25 L 452.00 187.75 L 452.25 186.75 L 453.50 185.00 L 454.75 183.75 L 455.75 183.00 L 456.50 182.50 L 457.00 182.25 L 458.00 182.00 L 459.75 181.50 L 460.75 181.25 L 466.25 181.25 L 467.00 181.50 L 467.75 182.00 L 469.50 182.25 L 470.00 182.50 L 470.50 183.00 L 471.00 183.00 L 471.50 183.25 L 472.50 184.00 L 473.50 185.00 L 474.25 186.00 L 474.50 186.75 L 475.00 187.25 L 476.00 187.25 L 476.50 186.75 L 476.75 186.25 L 476.75 185.75 L 476.75 182.25 L 476.75 180.25 L 476.50 179.75 L 476.00 179.50 L 475.00 179.25 L 474.00 179.25 L 473.25 178.75 L 472.50 178.50 L 471.25 178.50 L 469.00 177.75 L 467.25 177.50 Z M 189.50 177.50 L 188.25 177.75 L 185.75 178.50 L 185.00 178.75 L 183.25 179.75 L 182.25 180.50 L 181.50 181.25 L 180.75 182.25 L 179.75 184.00 L 179.50 184.50 L 179.25 185.75 L 179.25 189.50 L 179.50 190.75 L 179.75 191.25 L 180.50 192.00 L 180.50 192.50 L 181.50 193.75 L 182.75 195.00 L 184.00 196.00 L 184.75 196.50 L 185.75 197.25 L 186.25 197.25 L 187.25 198.00 L 187.75 198.25 L 189.50 199.00 L 191.00 199.25 L 193.25 200.25 L 193.75 200.50 L 195.00 201.25 L 195.50 201.75 L 196.50 203.00 L 196.75 203.75 L 196.75 206.75 L 196.50 207.50 L 196.25 208.00 L 195.50 209.00 L 195.25 209.25 L 194.50 209.50 L 193.75 210.25 L 193.25 210.50 L 192.50 210.75 L 191.25 211.00 L 188.00 211.00 L 186.75 210.75 L 186.00 210.50 L 185.50 210.25 L 184.25 209.50 L 183.25 208.50 L 182.25 207.25 L 182.00 206.50 L 181.75 204.75 L 181.50 204.25 L 181.00 203.75 L 180.00 203.75 L 179.25 204.50 L 179.00 205.00 L 178.75 205.50 L 178.75 211.75 L 179.25 212.50 L 179.75 213.00 L 180.25 213.25 L 181.25 213.25 L 182.50 214.00 L 183.50 214.25 L 185.25 214.50 L 186.75 214.75 L 188.25 214.75 L 188.50 215.00 L 189.75 215.00 L 190.00 214.75 L 191.50 214.75 L 192.75 214.50 L 194.00 214.25 L 194.75 214.00 L 195.75 213.25 L 196.25 213.25 L 196.75 213.00 L 197.25 212.75 L 198.00 212.25 L 199.00 211.50 L 200.50 210.00 L 201.25 209.00 L 202.00 207.75 L 202.25 207.00 L 202.50 206.00 L 202.75 204.75 L 202.75 203.25 L 202.50 201.75 L 202.25 200.50 L 202.00 200.00 L 201.25 199.00 L 201.25 198.50 L 201.00 198.00 L 200.25 197.00 L 198.75 195.50 L 198.00 195.00 L 197.25 194.50 L 196.25 194.25 L 195.75 193.75 L 195.25 193.50 L 194.50 193.50 L 193.25 192.75 L 191.75 192.50 L 189.50 191.50 L 189.00 191.25 L 188.25 190.50 L 187.75 190.50 L 186.75 189.75 L 186.00 189.00 L 185.25 188.00 L 185.00 186.75 L 185.00 185.50 L 185.25 184.25 L 185.50 183.75 L 186.00 183.25 L 186.25 182.50 L 186.50 182.25 L 187.75 181.50 L 188.50 181.25 L 194.75 181.25 L 196.25 182.00 L 197.00 182.50 L 197.50 183.00 L 197.50 183.25 L 198.25 184.00 L 198.50 184.50 L 198.50 185.50 L 199.00 186.00 L 200.50 185.75 L 200.75 185.25 L 200.75 183.75 L 200.50 183.50 L 200.50 182.25 L 201.00 181.00 L 201.00 180.00 L 200.75 179.50 L 200.25 179.00 L 199.75 178.75 L 197.50 178.50 L 196.00 177.75 L 194.50 177.50 Z M 215.25 12.50 L 212.50 12.75 L 211.50 13.00 L 210.50 13.50 L 208.50 13.50 L 207.00 13.75 L 205.25 14.50 L 203.50 14.50 L 201.75 14.75 L 200.25 15.50 L 198.50 15.75 L 196.75 15.75 L 195.00 16.50 L 192.50 16.75 L 190.75 17.50 L 189.50 17.50 L 188.50 17.75 L 187.75 18.25 L 186.50 18.50 L 184.25 18.50 L 183.00 18.75 L 182.25 19.25 L 181.50 19.50 L 179.75 19.50 L 178.50 19.75 L 178.00 20.25 L 177.25 20.50 L 175.75 20.50 L 174.75 20.75 L 173.00 21.50 L 171.50 21.50 L 170.25 21.75 L 168.50 22.50 L 167.25 22.50 L 166.25 22.75 L 165.50 23.25 L 164.75 23.50 L 163.25 23.50 L 162.25 23.75 L 161.50 24.25 L 160.75 24.50 L 159.25 24.50 L 158.00 24.75 L 156.25 25.50 L 155.00 25.50 L 154.00 25.75 L 153.25 26.25 L 152.50 26.50 L 151.25 26.50 L 150.25 26.75 L 149.25 27.25 L 148.00 27.50 L 146.50 27.50 L 145.25 27.75 L 144.50 28.25 L 143.25 28.50 L 141.50 28.50 L 140.50 28.75 L 139.75 29.25 L 138.75 29.50 L 137.00 29.50 L 136.25 29.75 L 135.50 30.25 L 134.75 30.50 L 132.50 30.50 L 131.25 31.25 L 130.50 31.50 L 129.00 31.50 L 128.00 31.75 L 127.25 32.25 L 126.50 32.50 L 124.50 32.50 L 123.25 32.75 L 122.50 33.25 L 121.75 33.50 L 120.25 33.50 L 119.00 33.75 L 118.25 34.25 L 117.50 34.50 L 115.75 34.50 L 114.75 34.75 L 114.00 35.25 L 113.25 35.50 L 111.75 35.50 L 110.50 35.75 L 109.75 36.25 L 109.00 36.50 L 107.00 36.50 L 105.75 36.75 L 105.00 37.25 L 104.25 37.50 L 102.75 37.50 L 101.50 37.75 L 101.00 38.25 L 100.25 38.50 L 98.75 38.50 L 97.50 38.75 L 96.25 39.50 L 93.75 39.50 L 93.00 39.75 L 91.75 40.50 L 89.50 40.50 L 88.50 40.75 L 87.25 41.50 L 85.25 41.50 L 84.00 41.75 L 83.00 42.25 L 82.00 42.50 L 79.75 42.50 L 78.25 42.75 L 76.50 43.50 L 74.75 43.75 L 73.00 43.75 L 70.50 44.50 L 68.25 44.50 L 66.00 44.75 L 65.25 45.25 L 64.50 45.50 L 61.25 45.50 L 59.75 45.75 L 58.75 46.25 L 56.50 46.50 L 52.00 46.75 L 50.25 47.25 L 48.25 47.50 L 45.50 47.75 L 39.25 48.00 L 34.50 48.00 L 32.75 47.75 L 31.50 47.50 L 30.50 47.25 L 29.75 46.75 L 29.00 46.00 L 29.00 45.50 L 29.25 43.75 L 29.00 43.25 L 28.25 42.50 L 27.75 42.25 L 26.50 42.25 L 25.75 42.50 L 24.50 43.50 L 23.50 44.50 L 22.75 45.50 L 22.50 46.00 L 22.00 47.50 L 22.00 48.00 L 22.25 48.75 L 22.50 49.50 L 22.75 50.00 L 23.50 51.00 L 25.50 53.00 L 26.00 53.25 L 26.75 53.25 L 28.00 54.00 L 28.75 54.25 L 30.25 54.50 L 31.50 54.75 L 34.25 54.75 L 36.25 55.25 L 40.00 55.25 L 43.50 55.00 L 45.50 54.50 L 48.00 54.25 L 52.00 54.25 L 54.25 54.00 L 56.50 53.25 L 59.50 53.25 L 61.50 53.00 L 62.50 52.50 L 63.50 52.25 L 65.50 52.25 L 67.25 52.00 L 69.75 51.25 L 72.75 51.00 L 75.00 50.25 L 76.75 50.00 L 78.75 50.00 L 79.75 49.50 L 80.75 49.25 L 83.25 49.25 L 84.50 49.00 L 86.00 48.25 L 88.50 48.00 L 89.50 47.50 L 90.50 47.25 L 92.25 47.25 L 94.00 47.00 L 94.75 46.50 L 95.75 46.25 L 96.75 46.00 L 98.00 46.00 L 99.50 45.25 L 101.50 45.00 L 103.25 44.25 L 104.50 44.25 L 105.75 44.00 L 106.50 43.50 L 107.25 43.25 L 108.75 43.00 L 110.25 43.00 L 111.00 42.75 L 111.75 42.25 L 113.25 42.25 L 114.25 42.00 L 114.75 41.50 L 115.50 41.25 L 117.75 41.00 L 120.75 40.25 L 121.50 40.00 L 122.25 39.50 L 123.00 39.25 L 125.25 39.25 L 126.25 39.00 L 126.75 38.50 L 127.50 38.25 L 129.75 38.00 L 130.50 37.50 L 131.25 37.25 L 132.50 37.25 L 133.50 37.00 L 134.25 36.50 L 135.00 36.25 L 136.75 36.25 L 137.75 36.00 L 138.50 35.50 L 139.25 35.25 L 142.25 35.00 L 144.00 34.25 L 145.75 34.25 L 147.00 34.00 L 147.75 33.50 L 148.50 33.25 L 150.25 33.25 L 151.50 33.00 L 152.50 32.50 L 153.50 32.25 L 155.75 32.25 L 156.75 32.00 L 157.50 31.50 L 158.25 31.25 L 159.75 31.25 L 160.75 31.00 L 161.50 30.50 L 162.25 30.25 L 164.50 30.00 L 167.25 29.25 L 168.25 29.00 L 169.00 28.50 L 170.00 28.25 L 172.75 28.00 L 173.75 27.50 L 175.00 27.25 L 176.25 27.25 L 177.25 27.00 L 178.00 26.50 L 178.75 26.25 L 180.25 26.25 L 181.50 26.00 L 183.50 25.25 L 184.75 25.25 L 186.00 25.00 L 186.75 24.50 L 187.50 24.25 L 189.50 24.25 L 190.75 24.00 L 191.50 23.50 L 192.50 23.25 L 194.25 23.25 L 196.75 22.50 L 198.50 22.25 L 200.50 22.25 L 201.75 22.00 L 202.75 21.50 L 205.00 21.25 L 206.00 20.75 L 206.75 21.00 L 206.00 21.75 L 204.00 22.75 L 203.25 23.50 L 202.50 23.50 L 201.50 24.50 L 200.50 24.75 L 199.75 25.50 L 199.00 25.75 L 198.25 26.50 L 197.75 26.50 L 197.25 26.75 L 196.50 27.50 L 195.75 27.75 L 195.00 28.50 L 194.50 28.50 L 193.50 29.25 L 192.75 29.75 L 191.00 31.25 L 189.00 32.50 L 187.75 33.25 L 186.50 33.75 L 185.25 34.50 L 184.50 35.25 L 183.25 35.75 L 182.50 36.50 L 181.75 36.75 L 181.00 37.50 L 180.25 37.75 L 178.25 39.50 L 177.25 39.75 L 176.50 40.50 L 175.75 40.75 L 175.00 41.50 L 174.00 41.75 L 173.25 42.50 L 172.75 42.50 L 172.00 43.25 L 171.25 43.50 L 170.50 44.25 L 169.75 44.50 L 169.00 45.25 L 168.25 45.50 L 167.25 46.50 L 166.75 46.50 L 166.00 47.25 L 164.00 48.50 L 162.00 49.50 L 161.25 50.25 L 160.00 50.75 L 159.25 51.50 L 158.75 51.50 L 158.00 52.25 L 156.75 52.75 L 155.00 54.25 L 154.25 54.50 L 152.00 56.50 L 151.25 56.75 L 150.25 57.50 L 149.25 58.50 L 148.25 58.75 L 147.50 59.50 L 146.75 59.75 L 146.00 60.50 L 145.00 60.75 L 144.25 61.50 L 143.75 61.50 L 142.75 62.50 L 142.25 62.50 L 141.50 63.25 L 140.75 63.50 L 139.75 64.50 L 138.00 65.50 L 137.00 65.75 L 136.00 66.50 L 135.50 66.50 L 134.75 67.25 L 133.50 67.75 L 131.75 69.00 L 130.00 70.50 L 129.00 71.25 L 127.75 71.75 L 127.00 72.50 L 126.50 72.50 L 126.00 72.75 L 125.25 73.50 L 124.50 73.75 L 123.75 74.50 L 123.00 74.75 L 122.25 75.50 L 121.50 75.75 L 120.50 76.50 L 118.25 78.50 L 117.50 78.75 L 115.75 80.25 L 115.00 80.75 L 113.50 81.50 L 112.75 82.25 L 112.00 82.75 L 111.50 82.75 L 110.75 83.50 L 110.00 83.75 L 108.75 84.50 L 107.50 85.50 L 105.25 87.50 L 104.00 88.50 L 103.25 88.75 L 103.00 89.25 L 102.75 89.25 L 102.00 89.75 L 101.25 90.50 L 100.50 90.75 L 99.75 91.50 L 99.00 91.75 L 98.25 92.50 L 97.75 92.50 L 97.25 92.75 L 96.25 93.50 L 95.25 94.50 L 94.50 94.75 L 92.50 96.50 L 91.75 96.75 L 91.00 97.50 L 90.50 97.50 L 89.50 98.50 L 88.75 98.75 L 88.00 99.50 L 87.50 99.50 L 86.50 100.25 L 85.75 100.75 L 84.50 101.75 L 84.00 102.50 L 83.00 103.25 L 82.25 103.50 L 81.50 104.25 L 80.25 104.75 L 78.50 106.25 L 77.75 106.50 L 76.75 107.50 L 76.00 107.75 L 74.75 108.75 L 73.50 110.00 L 73.00 110.50 L 72.50 110.50 L 71.25 111.50 L 70.25 112.50 L 69.50 112.75 L 69.00 113.50 L 68.50 113.50 L 67.50 114.50 L 66.75 114.75 L 66.00 115.50 L 65.50 115.50 L 64.00 116.75 L 63.00 117.75 L 60.75 119.50 L 59.50 120.50 L 58.75 120.75 L 58.00 121.50 L 57.25 121.75 L 56.25 122.50 L 55.25 123.50 L 54.50 123.75 L 53.50 124.50 L 52.00 126.00 L 48.75 128.50 L 47.75 129.25 L 46.00 130.50 L 45.25 130.75 L 45.00 131.25 L 44.75 131.25 L 44.00 131.75 L 41.50 133.75 L 41.00 134.50 L 39.50 135.50 L 38.25 136.75 L 37.00 137.75 L 34.75 139.50 L 33.75 140.25 L 32.75 140.75 L 31.75 141.50 L 30.50 142.50 L 28.75 144.25 L 27.25 145.50 L 26.50 145.75 L 26.00 146.50 L 25.75 146.50 L 25.00 147.25 L 24.00 147.75 L 22.75 148.75 L 21.00 150.50 L 19.75 151.50 L 18.75 152.25 L 17.75 152.75 L 17.25 153.50 L 17.00 153.50 L 16.50 154.25 L 16.25 154.50 L 13.50 157.25 L 13.25 157.50 L 13.00 157.50 L 12.75 157.75 L 12.50 158.25 L 11.75 159.50 L 11.50 160.00 L 11.50 161.75 L 11.75 162.25 L 12.25 163.00 L 13.00 164.00 L 13.50 164.25 L 14.25 164.75 L 14.75 165.00 L 16.75 165.00 L 17.75 164.25 L 19.00 164.00 L 19.75 163.25 L 20.25 163.25 L 20.75 163.00 L 21.50 162.25 L 22.00 162.25 L 22.75 161.50 L 24.00 161.00 L 24.75 160.25 L 25.50 160.00 L 26.25 159.25 L 27.25 159.00 L 29.00 158.00 L 29.75 157.25 L 32.25 156.00 L 33.00 155.25 L 33.75 155.00 L 34.50 154.25 L 35.50 154.00 L 36.00 153.50 L 37.00 153.25 L 37.75 152.50 L 39.00 152.00 L 39.75 151.25 L 40.25 151.25 L 40.75 151.00 L 41.50 150.25 L 42.25 150.00 L 43.00 149.25 L 44.25 148.50 L 45.25 148.25 L 46.50 147.25 L 47.00 147.25 L 47.75 146.50 L 48.25 146.25 L 49.50 146.00 L 50.50 145.25 L 51.75 145.00 L 52.75 144.25 L 54.00 144.00 L 54.75 143.25 L 55.25 143.25 L 56.50 142.25 L 57.75 142.00 L 58.25 141.50 L 58.75 141.25 L 59.50 141.25 L 60.00 141.00 L 60.50 140.50 L 61.00 140.25 L 62.25 140.00 L 63.50 139.25 L 64.25 139.25 L 64.75 139.00 L 65.75 138.25 L 67.25 138.00 L 68.00 137.25 L 69.25 137.00 L 69.75 136.50 L 70.25 136.25 L 71.00 136.25 L 71.50 136.00 L 72.50 135.25 L 73.25 135.25 L 73.75 135.00 L 74.25 134.50 L 74.75 134.25 L 75.75 134.25 L 76.75 134.00 L 77.75 133.25 L 78.50 133.25 L 79.00 133.00 L 79.50 132.50 L 80.00 132.25 L 81.00 132.25 L 81.75 132.00 L 82.50 131.25 L 84.00 131.00 L 84.50 130.50 L 85.25 130.25 L 86.25 130.25 L 86.75 130.00 L 87.75 129.25 L 89.25 129.00 L 90.50 128.25 L 91.50 128.25 L 92.25 128.00 L 93.00 127.50 L 93.75 127.25 L 94.75 127.25 L 95.50 127.00 L 96.75 126.25 L 98.75 126.00 L 99.50 125.75 L 100.25 125.25 L 101.75 125.00 L 102.50 124.50 L 103.25 124.25 L 104.50 124.25 L 105.50 124.00 L 106.25 123.50 L 107.00 123.25 L 110.50 122.50 L 113.00 122.25 L 114.00 122.00 L 114.75 121.50 L 115.75 121.25 L 117.25 121.25 L 118.50 121.00 L 120.25 120.25 L 122.50 120.25 L 123.75 120.00 L 124.50 119.50 L 125.75 119.25 L 128.25 119.25 L 129.75 119.00 L 130.75 118.50 L 138.75 118.50 L 141.00 119.25 L 141.50 119.75 L 141.50 121.75 L 141.00 122.75 L 141.00 123.75 L 141.25 124.25 L 141.50 124.75 L 141.75 125.00 L 143.00 126.00 L 143.50 126.25 L 145.25 126.25 L 145.75 126.00 L 147.00 125.25 L 149.25 122.75 L 150.00 122.25 L 151.25 120.50 L 151.50 120.25 L 152.25 119.75 L 152.25 119.50 L 153.00 119.00 L 153.50 118.00 L 154.25 117.00 L 158.00 113.25 L 159.75 112.00 L 161.75 110.25 L 162.25 109.75 L 162.50 109.25 L 165.25 107.00 L 165.75 106.25 L 168.25 104.25 L 173.25 99.25 L 174.75 98.00 L 177.25 96.25 L 178.75 95.00 L 180.75 93.00 L 182.75 91.25 L 185.50 89.00 L 187.00 88.00 L 187.25 87.75 L 187.25 87.50 L 190.75 84.25 L 192.00 83.25 L 193.00 82.50 L 194.75 81.25 L 195.50 81.00 L 195.75 80.50 L 196.00 80.50 L 196.75 80.00 L 198.00 79.00 L 199.25 77.75 L 199.50 77.50 L 200.25 77.25 L 201.50 76.25 L 202.50 75.25 L 203.75 74.25 L 204.50 74.00 L 205.00 73.50 L 205.75 72.75 L 206.00 72.75 L 207.75 71.25 L 208.75 70.50 L 209.50 70.25 L 210.50 69.25 L 211.00 69.25 L 211.75 68.50 L 212.50 68.25 L 213.25 67.50 L 216.00 66.00 L 216.75 65.25 L 217.25 65.25 L 218.00 64.50 L 219.25 64.00 L 220.00 63.25 L 220.75 63.00 L 222.75 61.25 L 223.25 61.25 L 224.25 60.25 L 225.00 60.00 L 225.75 59.25 L 227.25 59.00 L 228.00 58.25 L 229.00 58.25 L 229.50 58.00 L 229.75 57.50 L 230.25 57.25 L 231.00 57.75 L 230.50 58.25 L 230.50 58.75 L 229.75 59.50 L 229.50 61.00 L 228.75 61.75 L 228.50 62.75 L 227.75 63.50 L 227.50 64.50 L 226.75 65.25 L 226.25 66.50 L 225.50 67.25 L 225.50 67.75 L 224.75 68.50 L 224.50 69.50 L 223.75 70.25 L 223.50 70.75 L 223.50 71.25 L 223.25 71.75 L 222.50 72.50 L 222.25 73.50 L 221.75 74.00 L 221.50 75.00 L 220.75 75.75 L 220.50 76.75 L 219.75 77.50 L 219.50 78.00 L 219.50 78.50 L 219.25 79.00 L 218.50 79.75 L 218.50 80.25 L 217.50 81.50 L 217.50 82.00 L 216.75 82.75 L 216.50 83.25 L 216.50 83.75 L 216.25 84.25 L 215.50 85.00 L 215.25 86.00 L 214.25 87.75 L 213.25 89.50 L 212.50 90.75 L 211.75 91.50 L 211.25 92.75 L 210.50 93.50 L 210.50 94.00 L 209.75 94.75 L 209.50 95.25 L 209.50 96.00 L 208.75 96.75 L 208.50 97.75 L 207.50 98.75 L 207.50 99.25 L 206.50 100.25 L 206.25 101.00 L 205.50 101.75 L 205.50 102.25 L 204.75 103.00 L 204.50 103.75 L 203.50 104.75 L 203.25 105.50 L 202.50 106.25 L 202.50 106.75 L 202.25 107.25 L 202.00 107.50 L 201.75 107.75 L 201.50 108.25 L 200.75 109.00 L 200.50 109.75 L 199.75 110.50 L 199.50 111.00 L 199.50 111.50 L 199.25 112.00 L 198.50 112.75 L 198.50 113.25 L 197.75 114.00 L 197.50 114.50 L 197.50 115.00 L 197.00 115.50 L 196.75 116.00 L 196.50 116.75 L 196.00 118.50 L 196.00 120.25 L 196.50 121.50 L 198.25 123.25 L 199.25 123.50 L 200.25 123.75 L 201.75 123.75 L 202.50 123.50 L 203.00 123.25 L 203.50 123.00 L 204.75 122.25 L 207.25 119.50 L 207.50 119.25 L 209.75 117.25 L 212.50 115.25 L 213.75 114.00 L 215.25 113.00 L 215.75 112.25 L 217.00 111.50 L 219.50 109.25 L 220.75 108.25 L 221.50 108.00 L 221.75 107.50 L 222.00 107.50 L 222.75 107.00 L 225.25 105.00 L 225.75 104.25 L 227.25 103.25 L 227.50 102.75 L 227.75 102.50 L 228.75 101.75 L 229.00 101.75 L 230.00 101.00 L 230.25 100.75 L 230.25 100.50 L 230.50 100.25 L 231.75 99.25 L 232.75 98.50 L 234.25 97.75 L 235.75 96.50 L 236.50 96.25 L 237.50 95.25 L 238.25 95.00 L 238.75 94.25 L 239.25 94.25 L 240.25 93.25 L 241.00 93.00 L 241.75 92.25 L 242.50 92.00 L 243.25 91.25 L 244.00 91.00 L 244.75 90.25 L 245.50 90.00 L 246.50 89.25 L 249.50 87.25 L 250.50 86.25 L 251.00 86.25 L 252.00 85.25 L 252.75 85.00 L 253.50 84.25 L 254.00 84.25 L 254.50 84.00 L 255.25 83.25 L 256.50 82.50 L 258.75 81.25 L 259.25 81.25 L 260.00 80.50 L 261.00 80.25 L 261.75 79.50 L 263.00 79.00 L 263.75 78.25 L 264.25 78.25 L 265.00 77.50 L 266.25 77.00 L 267.00 76.25 L 268.00 76.00 L 268.75 75.25 L 269.75 75.00 L 270.25 74.50 L 270.75 74.25 L 272.00 74.00 L 272.50 73.50 L 273.00 73.25 L 273.75 73.25 L 274.25 73.00 L 276.00 72.00 L 276.75 71.25 L 277.75 71.75 L 277.50 72.25 L 276.75 73.00 L 276.50 73.75 L 275.75 74.50 L 275.50 75.25 L 274.50 76.50 L 274.50 77.00 L 273.75 77.75 L 273.25 79.00 L 272.50 79.75 L 272.25 80.50 L 271.50 81.25 L 271.50 81.75 L 270.75 82.50 L 270.50 83.25 L 269.75 84.00 L 269.50 84.50 L 269.50 85.00 L 268.75 85.75 L 268.50 86.25 L 268.50 86.75 L 268.25 87.25 L 267.75 87.75 L 267.50 88.75 L 266.75 89.50 L 266.50 90.50 L 265.75 91.25 L 265.50 91.75 L 265.50 92.50 L 264.75 93.25 L 264.50 94.50 L 264.25 95.00 L 263.75 95.50 L 263.50 96.00 L 263.50 96.50 L 262.75 97.50 L 262.50 98.75 L 261.75 99.50 L 261.50 100.25 L 261.50 101.00 L 261.25 101.50 L 260.75 102.00 L 260.50 102.75 L 260.50 104.00 L 259.75 105.25 L 259.50 106.25 L 259.50 108.25 L 259.00 109.25 L 258.75 110.25 L 258.75 112.75 L 259.25 115.25 L 259.50 116.50 L 259.75 117.00 L 260.25 117.50 L 260.50 118.50 L 261.50 119.50 L 261.50 120.00 L 262.75 121.25 L 263.75 122.00 L 264.50 122.25 L 265.25 123.00 L 265.75 123.25 L 267.75 123.50 L 273.25 123.50 L 275.00 123.25 L 275.50 123.00 L 276.00 122.50 L 276.75 122.75 L 276.50 123.75 L 276.75 124.50 L 277.50 125.25 L 278.50 126.00 L 279.25 126.00 L 279.50 126.25 L 280.00 126.25 L 280.75 126.00 L 281.75 125.25 L 284.00 123.25 L 286.25 121.25 L 287.00 120.25 L 290.50 116.75 L 290.75 116.50 L 292.50 115.00 L 295.25 113.00 L 295.75 112.25 L 297.25 111.25 L 297.50 111.00 L 297.50 110.75 L 297.75 110.50 L 299.00 109.50 L 300.00 109.00 L 301.00 108.25 L 303.50 106.25 L 305.75 104.25 L 306.00 104.25 L 307.25 103.25 L 307.50 103.00 L 307.50 102.75 L 307.75 102.50 L 311.25 99.25 L 313.75 97.25 L 315.00 96.25 L 315.75 96.00 L 317.00 95.00 L 317.25 94.75 L 317.25 94.50 L 317.50 94.25 L 318.75 93.25 L 319.75 92.50 L 320.75 92.00 L 323.00 90.00 L 324.00 89.25 L 325.00 88.50 L 326.00 88.00 L 328.00 86.25 L 329.75 85.25 L 330.75 84.25 L 331.50 84.00 L 331.75 83.50 L 332.00 83.50 L 332.75 83.00 L 333.75 82.00 L 334.75 81.25 L 335.25 81.25 L 336.25 80.25 L 337.25 80.00 L 338.00 79.25 L 338.75 79.00 L 339.75 78.00 L 340.75 77.25 L 341.25 77.25 L 342.00 76.50 L 342.75 76.25 L 343.75 75.25 L 344.50 75.00 L 345.25 74.25 L 346.00 74.00 L 346.75 73.25 L 347.50 73.00 L 348.25 72.25 L 349.00 72.00 L 349.75 71.25 L 350.50 71.00 L 351.25 70.25 L 352.00 70.00 L 353.00 69.25 L 354.00 68.25 L 354.75 67.75 L 355.50 67.25 L 356.75 66.50 L 357.25 66.25 L 357.75 66.25 L 358.25 66.00 L 359.75 64.75 L 361.25 64.00 L 362.00 63.25 L 363.00 63.00 L 363.75 62.25 L 364.25 62.25 L 365.00 61.50 L 366.25 61.00 L 367.00 60.25 L 367.75 60.00 L 368.50 59.25 L 369.50 59.00 L 370.25 58.25 L 371.00 58.00 L 371.75 57.25 L 372.75 57.00 L 373.50 56.25 L 374.50 56.00 L 375.00 55.50 L 376.00 55.25 L 377.25 54.25 L 377.75 54.25 L 378.25 54.00 L 379.00 53.25 L 380.00 53.00 L 381.00 52.25 L 381.75 52.25 L 382.25 52.00 L 383.25 51.25 L 384.25 51.00 L 385.00 50.25 L 386.25 50.00 L 387.50 49.25 L 388.25 49.25 L 389.00 49.00 L 390.75 48.00 L 391.75 47.25 L 393.00 47.00 L 389.50 50.50 L 388.75 51.50 L 388.50 52.25 L 387.75 53.00 L 387.50 53.75 L 386.75 54.50 L 386.50 55.25 L 385.75 55.75 L 384.75 57.00 L 384.25 57.75 L 384.25 58.00 L 383.75 58.50 L 383.50 59.00 L 382.75 59.50 L 382.50 60.25 L 381.75 61.00 L 381.50 61.75 L 380.75 62.50 L 380.50 63.25 L 379.25 65.00 L 377.00 67.75 L 375.75 69.50 L 375.25 70.75 L 374.50 71.50 L 374.50 72.00 L 373.75 72.75 L 373.50 73.50 L 372.75 74.25 L 372.50 75.00 L 371.75 75.75 L 371.50 76.50 L 370.75 77.25 L 370.50 78.00 L 369.75 78.75 L 369.25 80.00 L 368.50 80.75 L 368.50 81.25 L 367.75 82.00 L 367.25 83.25 L 366.50 84.00 L 366.50 84.50 L 365.75 85.25 L 365.50 85.75 L 365.50 86.25 L 365.25 86.75 L 364.75 87.25 L 364.50 88.25 L 363.75 89.25 L 363.50 90.25 L 362.75 91.00 L 362.50 91.50 L 362.50 92.00 L 361.75 93.00 L 361.50 94.00 L 361.00 94.50 L 357.75 94.50 L 356.25 94.75 L 355.25 95.25 L 353.75 95.50 L 350.75 95.50 L 349.00 95.75 L 346.25 96.50 L 342.25 96.75 L 341.25 97.25 L 340.25 97.50 L 338.00 97.50 L 336.25 97.75 L 335.25 98.25 L 334.25 98.50 L 331.50 98.50 L 330.25 98.75 L 329.25 99.25 L 327.75 99.50 L 325.75 99.50 L 323.75 99.75 L 322.25 100.25 L 320.75 100.50 L 316.75 100.50 L 315.25 100.75 L 314.00 101.50 L 313.25 101.50 L 312.75 101.75 L 312.00 102.25 L 311.50 102.75 L 311.25 103.25 L 311.00 103.75 L 311.00 105.00 L 311.50 106.25 L 312.25 107.00 L 312.75 107.25 L 313.50 107.50 L 314.25 107.75 L 317.00 107.75 L 319.00 107.50 L 321.00 107.25 L 322.25 107.00 L 323.25 106.50 L 324.75 106.25 L 327.50 106.25 L 329.00 106.00 L 330.00 105.50 L 331.00 105.25 L 334.00 105.25 L 335.75 105.00 L 336.50 104.50 L 337.50 104.25 L 339.50 104.25 L 341.25 104.00 L 342.25 103.50 L 343.25 103.25 L 345.50 103.00 L 347.50 103.00 L 350.75 102.25 L 352.75 102.00 L 356.50 102.00 L 357.00 101.50 L 357.50 101.50 L 358.00 102.00 L 357.75 102.75 L 357.50 103.50 L 356.75 104.50 L 356.50 105.50 L 356.50 106.50 L 355.50 108.25 L 355.50 109.25 L 354.75 110.25 L 354.50 110.75 L 354.50 111.50 L 354.25 112.25 L 353.75 112.75 L 353.50 113.75 L 353.50 115.00 L 352.75 116.25 L 352.50 117.00 L 352.50 119.25 L 351.75 120.50 L 351.50 122.50 L 351.50 130.50 L 351.75 132.25 L 352.50 133.50 L 352.50 134.50 L 352.75 135.25 L 353.25 135.75 L 353.50 136.25 L 353.50 136.75 L 353.75 137.25 L 354.50 137.75 L 356.75 140.25 L 357.75 141.00 L 358.50 141.25 L 360.75 142.00 L 364.25 142.00 L 365.00 141.75 L 366.25 141.25 L 367.00 140.75 L 367.75 139.75 L 368.00 139.25 L 368.00 138.00 L 367.00 137.00 L 366.25 137.00 L 365.50 137.50 L 364.50 137.75 L 363.50 137.75 L 362.50 137.50 L 361.00 136.00 L 360.50 135.25 L 360.25 134.75 L 360.00 133.75 L 359.75 132.50 L 359.50 131.25 L 359.50 126.25 L 359.75 124.50 L 360.25 123.00 L 360.25 121.50 L 360.50 120.00 L 361.00 119.25 L 361.25 118.25 L 361.25 117.25 L 361.50 116.25 L 362.00 115.50 L 362.25 114.75 L 362.25 113.50 L 362.50 112.75 L 363.00 112.00 L 363.25 111.25 L 363.25 110.50 L 363.50 109.75 L 364.00 109.00 L 364.25 107.50 L 364.50 107.00 L 365.00 106.50 L 365.25 105.75 L 365.25 105.00 L 365.50 104.50 L 366.00 104.00 L 366.25 103.50 L 366.25 103.00 L 367.00 102.00 L 367.50 100.25 L 368.50 100.00 L 371.00 100.00 L 373.25 99.25 L 377.00 99.25 L 379.75 99.00 L 381.75 98.75 L 383.25 98.25 L 388.00 98.25 L 389.50 98.00 L 391.00 97.50 L 394.25 97.25 L 398.75 97.25 L 403.25 97.00 L 405.00 96.50 L 407.00 96.25 L 412.25 96.25 L 416.25 96.00 L 418.25 95.50 L 423.00 95.25 L 431.25 95.25 L 437.75 95.00 L 439.50 94.50 L 447.25 94.25 L 457.75 94.00 L 470.00 93.75 L 482.75 93.50 L 509.75 93.50 L 516.75 94.00 L 526.25 94.00 L 536.50 94.25 L 541.00 94.50 L 543.25 95.00 L 547.75 95.00 L 550.50 95.50 L 555.00 95.50 L 556.25 96.00 L 559.50 96.25 L 565.00 96.25 L 566.75 96.75 L 568.75 97.00 L 574.25 97.25 L 575.75 97.50 L 577.00 98.00 L 579.25 98.00 L 579.75 97.50 L 580.00 97.00 L 579.75 95.75 L 579.25 95.50 L 578.00 95.50 L 576.50 95.25 L 574.75 94.50 L 571.75 94.25 L 569.75 93.50 L 567.75 93.50 L 566.00 93.25 L 565.25 92.75 L 564.00 92.50 L 561.00 92.50 L 559.25 92.25 L 558.00 91.75 L 556.25 91.50 L 551.50 91.50 L 550.00 91.25 L 549.25 90.75 L 548.00 90.50 L 541.50 90.50 L 540.00 90.25 L 539.00 89.75 L 535.25 89.50 L 530.25 89.50 L 526.25 89.25 L 524.50 88.75 L 522.50 88.50 L 514.75 88.50 L 511.25 88.25 L 508.00 87.75 L 504.00 87.50 L 488.00 87.25 L 469.75 87.25 L 446.75 87.50 L 437.00 87.75 L 435.25 88.25 L 430.25 88.25 L 427.25 88.75 L 422.00 88.75 L 420.75 89.25 L 416.25 89.25 L 412.50 89.50 L 410.00 90.00 L 406.25 90.00 L 403.75 90.50 L 398.75 90.50 L 396.00 90.75 L 394.00 91.25 L 390.25 91.50 L 383.75 91.50 L 382.50 91.75 L 381.50 92.25 L 380.00 92.50 L 374.25 92.75 L 371.75 92.50 L 372.00 92.00 L 373.00 90.50 L 373.25 90.00 L 373.25 89.25 L 374.00 88.50 L 374.25 88.00 L 374.25 87.25 L 375.00 86.50 L 375.25 86.00 L 375.25 85.50 L 375.50 85.00 L 376.25 84.25 L 376.25 83.75 L 377.00 83.00 L 378.00 81.25 L 378.50 80.00 L 379.25 78.75 L 381.25 76.25 L 381.50 75.50 L 382.25 74.75 L 382.50 74.00 L 383.25 73.25 L 384.00 72.25 L 384.25 71.50 L 385.25 70.25 L 385.25 69.75 L 386.00 68.75 L 386.75 67.75 L 388.25 66.25 L 389.25 65.00 L 390.00 64.00 L 390.25 63.25 L 391.25 62.00 L 393.00 59.75 L 394.25 58.25 L 396.25 56.25 L 397.25 55.00 L 398.00 53.75 L 399.00 52.50 L 400.25 51.00 L 401.25 50.25 L 403.25 48.00 L 404.25 46.75 L 405.00 45.50 L 406.25 44.25 L 407.25 43.00 L 408.00 42.00 L 408.50 41.25 L 409.25 40.25 L 409.50 37.75 L 409.25 36.50 L 409.00 36.00 L 408.75 35.75 L 408.25 35.25 L 407.75 34.75 L 407.25 34.50 L 405.50 33.75 L 403.25 33.75 L 402.00 34.50 L 401.00 34.50 L 400.25 34.75 L 398.50 35.50 L 398.00 35.75 L 397.50 36.25 L 397.00 36.50 L 396.25 36.50 L 395.75 36.75 L 395.25 37.25 L 394.75 37.50 L 394.25 37.50 L 393.75 37.75 L 393.00 38.50 L 392.25 38.50 L 391.75 38.75 L 391.00 39.50 L 390.00 39.75 L 389.25 40.50 L 388.50 40.50 L 388.00 40.75 L 387.25 41.50 L 386.50 41.50 L 386.00 41.75 L 385.50 42.25 L 385.00 42.50 L 384.50 42.50 L 384.00 42.75 L 381.75 44.25 L 379.00 45.50 L 378.00 46.50 L 377.25 46.75 L 376.50 47.50 L 375.50 47.75 L 374.75 48.50 L 374.25 48.50 L 373.75 48.75 L 373.00 49.50 L 372.50 49.50 L 371.25 50.50 L 370.75 50.50 L 370.00 51.25 L 368.75 51.75 L 368.00 52.50 L 367.50 52.50 L 366.75 53.25 L 366.00 53.50 L 365.00 54.50 L 364.00 54.75 L 363.25 55.50 L 362.75 55.50 L 362.00 56.25 L 361.25 56.50 L 360.25 57.50 L 359.50 57.75 L 358.75 58.50 L 358.00 58.75 L 357.25 59.50 L 356.75 59.50 L 356.00 60.25 L 354.75 60.75 L 354.00 61.50 L 353.50 61.50 L 353.00 61.75 L 352.00 62.75 L 351.00 63.50 L 350.50 63.50 L 349.50 64.50 L 348.75 64.75 L 348.00 65.50 L 347.50 65.50 L 346.25 66.50 L 345.75 66.50 L 344.75 67.50 L 342.75 68.50 L 342.00 69.25 L 341.25 69.50 L 339.00 71.50 L 338.50 71.50 L 337.50 72.50 L 336.75 72.75 L 336.00 73.50 L 335.25 73.75 L 334.50 74.50 L 333.75 74.75 L 332.75 75.50 L 331.75 76.25 L 329.25 78.50 L 328.00 79.50 L 327.50 79.50 L 326.50 80.50 L 325.75 80.75 L 324.75 81.50 L 322.75 83.25 L 321.00 84.50 L 320.25 84.75 L 319.25 85.50 L 318.25 86.50 L 317.00 87.50 L 316.50 87.50 L 315.25 88.50 L 311.75 91.50 L 310.50 92.50 L 309.75 92.75 L 308.75 93.50 L 305.25 96.50 L 304.00 97.50 L 303.25 97.75 L 303.00 98.25 L 302.75 98.25 L 302.00 98.75 L 299.75 100.50 L 298.50 101.50 L 298.25 101.75 L 297.75 102.25 L 297.25 103.00 L 297.00 103.25 L 295.25 104.75 L 293.75 105.75 L 293.25 106.50 L 292.00 107.50 L 291.75 107.50 L 290.50 108.50 L 288.25 110.75 L 285.75 112.75 L 284.75 113.75 L 279.00 119.50 L 278.50 119.00 L 278.25 118.25 L 277.75 118.00 L 276.00 118.00 L 274.25 118.50 L 271.00 118.50 L 270.25 118.25 L 269.75 118.00 L 269.00 117.50 L 268.25 116.75 L 267.50 115.25 L 267.25 114.25 L 267.25 111.50 L 267.50 110.25 L 268.25 107.25 L 269.00 105.75 L 269.25 103.50 L 270.00 102.50 L 270.25 102.00 L 270.25 101.25 L 272.25 96.75 L 273.00 96.00 L 273.25 95.50 L 274.25 92.75 L 274.50 92.25 L 275.25 91.00 L 276.00 90.25 L 276.25 89.25 L 277.00 88.50 L 277.50 87.25 L 278.25 86.00 L 279.00 85.25 L 279.50 84.00 L 280.25 83.00 L 281.25 82.00 L 282.00 81.00 L 282.25 80.25 L 283.25 79.25 L 284.00 78.25 L 284.25 77.50 L 285.25 76.50 L 286.00 75.25 L 286.50 74.00 L 287.25 73.25 L 287.50 72.25 L 288.00 71.75 L 288.25 71.25 L 288.25 70.75 L 288.50 70.25 L 289.00 69.75 L 289.25 69.25 L 290.00 67.00 L 290.00 66.00 L 289.75 65.25 L 289.25 64.00 L 288.25 62.75 L 288.00 62.50 L 287.00 61.75 L 286.50 61.50 L 281.75 61.50 L 281.25 61.75 L 280.75 62.25 L 280.25 62.50 L 279.25 62.50 L 278.50 62.75 L 276.75 63.50 L 274.50 64.50 L 274.00 64.75 L 273.00 65.50 L 272.00 65.75 L 271.00 66.50 L 270.50 66.50 L 270.00 66.75 L 267.75 68.25 L 266.75 68.50 L 266.00 69.25 L 264.75 69.75 L 264.00 70.50 L 263.50 70.50 L 262.50 71.50 L 261.50 71.75 L 260.75 72.50 L 260.00 72.75 L 259.25 73.50 L 258.25 73.75 L 257.50 74.50 L 256.75 74.75 L 256.00 75.50 L 255.00 75.75 L 254.25 76.50 L 253.75 76.50 L 253.25 76.75 L 252.25 77.50 L 251.25 78.50 L 250.75 78.50 L 249.75 79.50 L 249.00 79.75 L 248.25 80.50 L 247.50 80.75 L 246.75 81.50 L 246.25 81.50 L 245.50 82.00 L 244.00 83.25 L 242.75 83.75 L 242.00 84.50 L 241.50 84.50 L 240.50 85.25 L 239.00 86.50 L 238.25 86.75 L 237.25 87.50 L 236.25 88.50 L 235.75 88.50 L 235.00 89.25 L 234.25 89.50 L 233.25 90.50 L 232.75 90.50 L 232.25 90.75 L 231.25 91.50 L 230.25 92.50 L 229.50 92.75 L 227.75 94.50 L 226.50 95.50 L 225.75 95.75 L 225.00 96.50 L 224.50 96.50 L 222.50 98.25 L 221.25 98.75 L 220.50 99.50 L 219.75 99.75 L 218.75 100.50 L 217.75 101.25 L 216.00 103.00 L 215.00 103.75 L 214.00 103.75 L 214.25 103.00 L 215.25 102.00 L 215.25 101.50 L 216.00 100.75 L 217.00 99.00 L 217.25 98.00 L 218.00 97.25 L 218.25 96.75 L 218.25 96.25 L 218.50 95.75 L 219.00 95.25 L 219.25 94.75 L 219.25 94.25 L 220.00 93.25 L 220.25 92.00 L 221.00 91.25 L 221.50 90.00 L 222.25 88.75 L 223.25 87.50 L 223.25 87.00 L 224.00 86.25 L 224.50 85.00 L 225.25 84.25 L 225.25 83.75 L 226.00 83.00 L 226.25 82.25 L 227.00 81.50 L 227.50 80.25 L 228.25 79.50 L 228.25 79.00 L 229.00 78.25 L 229.25 77.00 L 229.50 76.50 L 230.50 74.75 L 231.25 74.00 L 231.25 73.50 L 232.00 72.75 L 232.25 72.00 L 233.00 71.25 L 233.50 70.00 L 234.00 69.50 L 234.25 68.50 L 235.00 67.75 L 235.50 66.50 L 236.25 65.75 L 236.50 64.75 L 238.25 62.00 L 238.50 61.00 L 239.00 60.50 L 239.25 60.00 L 239.25 59.25 L 239.50 58.75 L 240.00 58.25 L 240.25 57.00 L 241.00 55.75 L 241.25 54.75 L 241.50 53.00 L 241.50 50.75 L 241.25 50.00 L 241.00 49.50 L 240.00 48.25 L 240.00 48.00 L 239.75 47.75 L 239.25 47.50 L 237.75 46.75 L 235.50 46.75 L 235.00 47.25 L 234.25 47.50 L 232.25 48.25 L 230.75 48.50 L 230.25 48.75 L 229.75 49.25 L 229.25 49.50 L 228.75 49.50 L 228.25 49.75 L 227.75 50.25 L 227.25 50.50 L 226.75 50.50 L 226.25 50.75 L 224.50 51.75 L 222.75 52.75 L 222.00 53.50 L 221.25 53.75 L 219.25 55.50 L 218.75 55.50 L 218.00 56.25 L 216.75 56.75 L 213.25 59.50 L 212.50 59.75 L 211.50 60.50 L 209.75 61.75 L 208.75 62.50 L 207.75 63.50 L 206.75 64.25 L 203.00 66.75 L 201.00 68.50 L 200.25 68.75 L 199.75 69.25 L 198.25 70.75 L 197.00 71.75 L 193.50 74.50 L 192.25 75.50 L 191.50 75.75 L 190.50 76.50 L 189.00 77.75 L 187.25 79.50 L 186.50 79.75 L 186.00 80.50 L 185.50 80.75 L 185.00 81.25 L 184.75 81.25 L 184.00 81.75 L 183.00 82.50 L 179.25 85.50 L 177.00 87.75 L 175.75 88.50 L 174.50 89.50 L 171.00 92.75 L 167.25 96.50 L 165.50 97.75 L 164.75 98.50 L 164.50 99.00 L 164.00 99.50 L 161.50 101.50 L 160.75 102.50 L 160.25 103.00 L 160.00 103.25 L 158.00 104.75 L 153.50 109.50 L 150.75 112.00 L 148.50 114.25 L 147.25 116.00 L 146.75 116.50 L 146.00 116.50 L 144.00 114.75 L 143.50 114.50 L 143.00 114.50 L 142.00 113.75 L 141.25 113.50 L 138.25 113.25 L 130.75 113.25 L 126.25 113.50 L 124.50 113.75 L 122.75 114.50 L 120.25 114.50 L 118.25 114.75 L 116.50 115.50 L 115.00 115.50 L 113.50 115.75 L 111.75 116.50 L 109.25 116.75 L 108.25 117.25 L 107.00 117.50 L 105.75 117.50 L 104.75 117.75 L 103.50 118.50 L 102.25 118.50 L 101.25 118.75 L 100.50 119.25 L 99.50 119.50 L 98.50 119.50 L 97.50 119.75 L 96.75 120.25 L 96.00 120.50 L 94.75 120.50 L 93.75 120.75 L 92.25 121.50 L 91.50 121.50 L 90.75 121.75 L 90.25 122.25 L 89.50 122.50 L 88.50 122.50 L 87.75 122.75 L 86.50 123.50 L 85.50 123.50 L 84.50 123.75 L 84.00 124.25 L 83.50 124.50 L 82.50 124.50 L 81.75 124.75 L 80.50 125.50 L 79.50 125.50 L 78.75 125.75 L 78.25 126.25 L 77.75 126.50 L 76.75 126.50 L 76.25 126.75 L 75.25 127.50 L 74.50 127.50 L 73.75 127.75 L 73.00 128.50 L 71.25 128.75 L 70.25 129.50 L 69.50 129.50 L 68.75 129.75 L 67.75 130.50 L 67.00 130.50 L 66.50 130.75 L 66.00 131.25 L 65.50 131.50 L 64.00 131.75 L 63.00 132.50 L 62.25 132.50 L 61.50 132.75 L 60.50 133.50 L 59.50 133.75 L 58.50 134.50 L 58.00 134.50 L 57.50 134.75 L 57.00 135.25 L 56.50 135.50 L 55.75 135.50 L 55.25 135.75 L 54.75 136.25 L 54.25 136.50 L 53.50 136.50 L 53.00 136.75 L 52.50 137.25 L 52.00 137.50 L 51.25 137.50 L 50.50 137.75 L 50.00 138.25 L 48.50 138.50 L 47.25 139.50 L 46.25 140.00 L 46.00 139.50 L 46.50 139.00 L 46.75 139.00 L 49.00 137.25 L 51.00 135.25 L 52.75 133.75 L 54.75 132.00 L 57.00 130.25 L 58.25 129.25 L 59.00 129.00 L 59.75 128.25 L 60.50 128.00 L 61.50 127.25 L 62.50 126.25 L 63.25 126.00 L 63.75 125.25 L 64.50 125.00 L 65.75 124.00 L 66.75 123.00 L 67.75 122.25 L 68.50 122.00 L 69.50 121.25 L 70.50 120.25 L 71.25 120.00 L 72.25 119.25 L 74.50 117.25 L 75.25 117.00 L 76.25 116.25 L 77.25 115.25 L 78.00 115.00 L 78.75 114.25 L 79.50 114.00 L 80.50 113.25 L 81.50 112.25 L 82.25 112.00 L 85.00 110.00 L 87.00 108.25 L 88.75 107.00 L 89.75 106.25 L 90.25 106.25 L 91.25 105.50 L 92.00 105.00 L 94.75 103.00 L 97.00 101.00 L 98.00 100.25 L 99.00 99.50 L 99.75 99.25 L 100.50 98.50 L 101.25 98.25 L 103.75 96.25 L 104.50 96.00 L 106.50 94.25 L 107.25 94.00 L 108.00 93.25 L 110.00 92.25 L 110.75 91.50 L 112.00 91.00 L 112.75 90.25 L 113.50 90.00 L 113.75 89.50 L 114.00 89.50 L 115.50 88.25 L 116.00 88.25 L 117.00 87.25 L 117.75 87.00 L 118.75 86.00 L 119.75 85.25 L 120.25 85.25 L 121.00 84.50 L 121.75 84.25 L 122.50 83.50 L 123.25 83.25 L 124.75 82.00 L 125.75 81.25 L 126.25 81.25 L 127.00 80.50 L 128.25 80.00 L 129.00 79.25 L 129.75 79.00 L 130.50 78.25 L 131.25 78.00 L 132.00 77.25 L 132.75 77.00 L 134.75 75.25 L 135.25 75.25 L 136.25 74.25 L 136.75 74.00 L 137.25 74.00 L 138.00 73.25 L 138.75 73.00 L 139.50 72.25 L 140.00 72.25 L 140.75 71.50 L 142.00 71.00 L 144.00 69.25 L 145.75 68.25 L 146.25 68.25 L 148.25 67.00 L 149.00 66.25 L 149.50 66.25 L 150.25 65.50 L 151.00 65.25 L 152.00 64.25 L 152.50 64.25 L 153.25 63.50 L 154.50 63.00 L 155.25 62.25 L 156.00 62.00 L 156.75 61.25 L 157.25 61.25 L 157.75 61.00 L 158.50 60.25 L 159.25 60.00 L 160.00 59.25 L 160.75 59.00 L 161.50 58.25 L 162.25 58.00 L 163.00 57.25 L 163.75 57.00 L 164.50 56.25 L 165.00 56.25 L 165.75 55.50 L 167.00 55.00 L 167.75 54.25 L 168.50 54.00 L 169.25 53.25 L 170.00 53.00 L 170.75 52.25 L 171.25 52.25 L 172.00 51.50 L 173.25 51.00 L 174.00 50.25 L 175.00 50.00 L 177.25 48.75 L 178.50 48.00 L 179.25 47.25 L 180.00 47.00 L 180.75 46.25 L 181.25 46.25 L 182.00 45.50 L 183.25 45.00 L 184.00 44.25 L 184.75 44.00 L 185.50 43.25 L 186.25 43.00 L 187.00 42.25 L 187.75 42.00 L 188.50 41.25 L 189.00 41.25 L 189.75 40.50 L 190.50 40.25 L 191.50 39.25 L 192.00 39.25 L 193.00 38.25 L 193.50 38.25 L 194.50 37.25 L 195.00 37.25 L 195.75 36.50 L 197.75 35.25 L 199.00 34.50 L 200.00 34.25 L 200.75 33.50 L 201.25 33.25 L 201.75 33.25 L 202.25 33.00 L 204.00 32.00 L 205.25 31.25 L 206.50 30.25 L 207.25 30.00 L 208.25 29.25 L 209.00 28.50 L 209.75 28.25 L 210.75 27.25 L 211.25 27.25 L 212.25 26.25 L 213.00 26.00 L 213.75 25.25 L 214.50 25.00 L 215.75 24.00 L 218.00 22.25 L 219.25 21.25 L 221.00 19.50 L 221.25 18.75 L 222.00 18.00 L 222.00 15.50 L 221.25 14.25 L 220.75 13.75 L 219.50 13.00 L 219.00 12.75 L 218.25 12.50 Z" fill="#fff" fill-rule="evenodd"/></svg>